P1
8 8
# i = 0
0 0 0 0 0 0 0 1 # 80
0 0 0 1 0 1 1 0 # 68
0 0 0 1 0 1 1 1 # E8
0 1 1 1 1 1 1 0 # 7E
0 0 0 1 0 1 1 0 # 68
0 1 1 0 1 0 0 0 # 16
0 1 1 1 1 1 1 0 # 7E
1 1 1 0 1 0 0 0 # 17

