P1
8 8
# i = 3
0 1 1 0 1 0 0 0 # 16
1 0 0 0 0 0 0 0 # 01
1 1 1 0 1 0 0 0 # 17
1 0 0 0 0 0 0 0 # 01
1 0 0 0 0 0 0 0 # 01
0 0 0 0 0 0 0 0 # 00
1 0 0 0 0 0 0 0 # 01
0 0 0 0 0 0 0 0 # 00

