P1
8 8
# i = 1
0 0 0 1 0 1 1 0 # 68
0 1 1 0 1 0 0 0 # 16
0 1 1 1 1 1 1 0 # 7E
1 1 1 0 1 0 0 0 # 17
0 1 1 0 1 0 0 0 # 16
1 0 0 0 0 0 0 0 # 01
1 1 1 0 1 0 0 0 # 17
1 0 0 0 1 1 0 0 # 31
