P1
8 8
# i = 3
0 1 1 1 1 0 0 1 # 9E
1 0 0 1 0 0 1 1 # C9
1 1 1 1 1 0 1 1 # DF
1 0 1 0 0 1 1 0 # 65
1 1 1 1 1 1 1 1 # FF
1 1 1 1 1 1 1 0 # 7F
1 0 0 0 0 0 0 0 # 01
0 0 0 0 0 0 0 0 # 00
