P1
8 8
# i = 4
0 0 0 1 0 1 1 0 # 68
1 1 1 0 1 0 1 0 # 57
1 1 1 1 1 1 1 1 # FF
1 1 1 1 1 0 0 1 # 9F
1 1 1 1 1 1 1 1 # FF
1 1 1 1 1 1 1 0 # 7F
1 1 1 0 1 0 0 0 # 17
1 0 0 0 0 0 0 0 # 01
