P1
8 8
# i = 5
0 1 1 0 1 1 1 1 # F6
1 0 0 0 0 0 1 0 # 41
1 1 1 1 1 0 1 1 # DF
1 0 1 0 0 1 1 0 # 65
1 1 1 1 1 1 1 1 # FF
1 1 1 1 1 1 1 0 # 7F
1 0 0 0 0 0 0 0 # 01
0 0 0 0 0 0 0 0 # 00
