P1
8 8
# i = 7
1 0 0 0 0 0 0 0 # 01
0 0 0 0 0 0 0 0 # 00
1 0 0 0 0 0 0 0 # 01
0 0 0 0 0 0 0 0 # 00
0 0 0 0 0 0 0 0 # 00
0 0 0 0 0 0 0 0 # 00
0 0 0 0 0 0 0 0 # 00
0 0 0 0 0 0 0 0 # 00
